<?xml version="1.0" standalone="no"?><!DOCTYPE svg PUBLIC "-//W3C//DTD SVG 1.1//EN" "http://www.w3.org/Graphics/SVG/1.1/DTD/svg11.dtd"><svg t="1513891581615" class="icon" style="" viewBox="0 0 1024 1024" version="1.1" xmlns="http://www.w3.org/2000/svg" p-id="1873" xmlns:xlink="http://www.w3.org/1999/xlink" width="200" height="200"><defs><style type="text/css"></style></defs><path d="M512 12.672c-282.752 0-512 229.248-512 512 0 226.24 146.688 418.112 350.144 485.824 25.6 4.736 35.008-11.136 35.008-24.64 0-12.224-0.512-52.544-0.704-95.296-142.464 30.976-172.48-60.416-172.48-60.416C188.672 770.944 155.136 755.2 155.136 755.2c-46.464-31.808 3.52-31.104 3.52-31.104 51.392 3.584 78.464 52.736 78.464 52.736 45.696 78.272 119.808 55.616 148.992 42.56 4.608-33.088 17.856-55.68 32.512-68.48-113.728-12.928-233.28-56.832-233.28-253.056 0-55.872 20.032-101.568 52.736-137.408C232.768 347.52 215.232 295.488 243.008 224.96c0 0 43.008-13.76 140.864 52.48C424.704 266.112 468.48 260.416 512 260.224c43.52 0.192 87.36 5.888 128.256 17.216 97.728-66.24 140.672-52.48 140.672-52.48 27.84 70.528 10.368 122.624 5.056 135.488 32.832 35.84 52.672 81.536 52.672 137.408 0 196.672-119.808 239.936-233.792 252.608 18.368 15.872 34.752 47.04 34.752 94.784 0 68.48-0.576 123.648-0.576 140.48 0 13.632 9.216 29.568 35.2 24.576 203.328-67.776 349.824-259.648 349.824-485.76 0-282.752-229.248-512-512-512L512 12.672z" p-id="1874" fill="#cdcdcd"></path></svg>